General

Complete name                    : Paranorman[2012]BRrip[Ac3-5.1]-=[CaLvIn]=-
Format                           : AVI
Format/Info                      : Audio Video Interleave
File size                        : 701 MiB
Duration                         : 1h 32mn
Overall bit rate                 : 1 062 Kbps

Video

ID                               : 0
Format                           : MPEG-4 Visual
Format profile                   : Advanced Simple@L5
Format settings, BVOP            : 2
Format settings, QPel            : No
Format settings, GMC             : No warppoints
Format settings, Matrix          : Default (H.263)
Codec ID                         : XVID
Codec ID/Hint                    : XviD
Duration                         : 1h 32mn
Bit rate                         : 796 Kbps
Width                            : 720 pixels
Height                           : 304 pixels
Display aspect ratio             : 16:9
Frame rate                       : 23.976 fps
Color space                      : YUV
Chroma subsampling               : 4:2:0
Bit depth                        : 8 bits
Scan type                        : Progressive
Compression mode                 : Lossy
Bits/(Pixel*Frame)               : 0.152
Stream size                      : 525 MiB (75%)
Writing library                  : XviD 1.2.1 (UTC 2008-12-04)

Audio

ID                               : 1
Format                           : AC-3
Format/Info                      : Audio Coding 3
Mode extension                   : CM (complete main)
Codec ID                         : 2000
Duration                         : 1h 32mn
Bit rate mode                    : Constant
Bit rate                         : 256 Kbps
Channel(s)                       : 6 channels
Channel positions                : Front: L C R, Side: L R, LFE
Sampling rate                    : 48.0 KHz
Bit depth                        : 16 bits
Compression mode                 : Lossy
Stream size                      : 169 MiB (24%)
Alignment                        : Split accross interleaves
Interleave, duration             : 42 ms (1.00 video frame)
Interleave, preload duration     : 500 ms

Screens
 
http://img10.imageshack.us/img10/2082/52887621.png 
http://img834.imageshack.us/img834/9906/57831888.png 
http://img29.imageshack.us/img29/3349/24406464.png 
http://img6.imageshack.us/img6/4611/62517723.png 
http://img20.imageshack.us/img20/403/90933519.png 
http://img35.imageshack.us/img35/4260/74014141.png 
http://img94.imageshack.us/img94/2975/11484962.png 
http://img593.imageshack.us/img593/3210/93455648m.png 
http://img690.imageshack.us/img690/448/99516300.png 
http://img706.imageshack.us/img706/1117/57230714.png